<svg width="155" height="164" viewBox="0 0 155 164" fill="none" xmlns="http://www.w3.org/2000/svg">
<path d="M49.7833 132.99C47.6323 138.486 40.7052 139.833 37.109 135.319C35.4311 133.214 34.9556 130.298 35.8893 127.706C53.4129 79.0463 71.2907 55.7753 133.32 40.8207C135.918 40.1944 138.636 41.159 140.341 43.2984C143.906 47.7722 141.491 54.7106 136.055 56C89.3801 67.0707 68.0612 86.2914 49.7833 132.99Z" fill="#5FD2BE"/>
<path d="M36.384 88.4315C34.9248 92.7122 29.5928 93.9103 26.8406 90.4562C25.6666 88.9827 25.2818 86.9665 25.839 85.1176C36.2853 50.4539 48.0553 34.3301 91.7088 26.3712C93.5502 26.0355 95.4279 26.7634 96.624 28.2645C99.3513 31.6874 97.3429 36.9999 93.1463 37.78C61.5016 43.6625 47.2672 56.5037 36.384 88.4315Z" fill="#5FD2BE"/>
</svg>
