<svg width="157" height="69" viewBox="0 0 157 69" fill="none" xmlns="http://www.w3.org/2000/svg">
<path d="M0 50.676C0 47.2588 2.38431 44.1844 5.64191 43.1525C129.385 3.95329 35.346 26.8079 150.167 50.9507C154.043 51.7658 157 55.196 157 59.1571C157 64.2985 152.272 68.1891 147.223 67.2206C33.2311 45.3571 120.517 20.4065 10.3939 58.0568C5.32216 59.7907 0 56.0359 0 50.676Z" fill="#FF9393"/>
<path d="M22 23.1708C22 20.4152 23.919 17.9346 26.5442 17.0968C125.819 -14.5856 50.3878 3.88443 142.487 23.4008C145.616 24.0638 148 26.8346 148 30.0331C148 34.1927 144.175 37.3391 140.092 36.5493C48.7237 18.8797 118.666 -1.27158 30.4068 29.1298C26.3071 30.542 22 27.5069 22 23.1708Z" fill="#FF9393"/>
</svg>
