<svg id="eUX5juTsCQ01" xmlns="http://www.w3.org/2000/svg" xmlns:xlink="http://www.w3.org/1999/xlink" viewBox="0 0 122 124" shape-rendering="geometricPrecision" text-rendering="geometricPrecision"><style><![CDATA[#eUX5juTsCQ02_ts {animation: eUX5juTsCQ02_ts__ts 3000ms linear infinite alternate-reverse forwards}@keyframes eUX5juTsCQ02_ts__ts { 0% {transform: translate(61.116994px,60.886368px) scale(1,1)} 100% {transform: translate(61.116994px,60.886368px) scale(0.917853,0.940064)}}]]></style><g id="eUX5juTsCQ02_ts" transform="translate(61.116994,60.886368) scale(0.917853,0.940064)"><g id="eUX5juTsCQ02" transform="translate(-61.116994,-56.886368)" clip-path="url(#eUX5juTsCQ049)"><g id="eUX5juTsCQ03"><g id="eUX5juTsCQ04" clip-path="url(#eUX5juTsCQ011)"><g id="eUX5juTsCQ05"><circle id="eUX5juTsCQ06" r="5" transform="matrix(0.946409 0.32297 -0.337918 0.941176 36.7774 6.32073)" fill="rgb(255,255,255)" stroke="none" stroke-width="1"/><circle id="eUX5juTsCQ07" r="5" transform="matrix(0.946409 0.32297 -0.337918 0.941176 55.7057 12.7801)" fill="rgb(255,255,255)" stroke="none" stroke-width="1"/><circle id="eUX5juTsCQ08" r="5" transform="matrix(0.946409 0.32297 -0.337918 0.941176 74.6338 19.2396)" fill="rgb(255,255,255)" stroke="none" stroke-width="1"/><circle id="eUX5juTsCQ09" r="5" transform="matrix(0.946409 0.32297 -0.337918 0.941176 93.562 25.6989)" fill="rgb(255,255,255)" stroke="none" stroke-width="1"/><circle id="eUX5juTsCQ010" r="5" transform="matrix(0.946409 0.32297 -0.337918 0.941176 112.49 32.1584)" fill="rgb(255,255,255)" stroke="none" stroke-width="1"/></g><clipPath id="eUX5juTsCQ011"><rect id="eUX5juTsCQ012" width="100" height="20" rx="0" ry="0" transform="matrix(0.946409 0.32297 -0.337918 0.941176 33.735 0)" fill="rgb(255,255,255)" stroke="none" stroke-width="1"/></clipPath></g><g id="eUX5juTsCQ013" clip-path="url(#eUX5juTsCQ020)"><g id="eUX5juTsCQ014"><circle id="eUX5juTsCQ015" r="5" transform="matrix(0.946409 0.32297 -0.337918 0.941176 30.0191 25.1442)" fill="rgb(255,255,255)" stroke="none" stroke-width="1"/><circle id="eUX5juTsCQ016" r="5" transform="matrix(0.946409 0.32297 -0.337918 0.941176 48.9474 31.6036)" fill="rgb(255,255,255)" stroke="none" stroke-width="1"/><circle id="eUX5juTsCQ017" r="5" transform="matrix(0.946409 0.32297 -0.337918 0.941176 67.8755 38.063)" fill="rgb(255,255,255)" stroke="none" stroke-width="1"/><circle id="eUX5juTsCQ018" r="5" transform="matrix(0.946409 0.32297 -0.337918 0.941176 86.8037 44.5224)" fill="rgb(255,255,255)" stroke="none" stroke-width="1"/><circle id="eUX5juTsCQ019" r="5" transform="matrix(0.946409 0.32297 -0.337918 0.941176 105.732 50.9819)" fill="rgb(255,255,255)" stroke="none" stroke-width="1"/></g><clipPath id="eUX5juTsCQ020"><rect id="eUX5juTsCQ021" width="100" height="20" rx="0" ry="0" transform="matrix(0.946409 0.32297 -0.337918 0.941176 26.9767 18.8235)" fill="rgb(255,255,255)" stroke="none" stroke-width="1"/></clipPath></g><g id="eUX5juTsCQ022" clip-path="url(#eUX5juTsCQ029)"><g id="eUX5juTsCQ023"><circle id="eUX5juTsCQ024" r="5" transform="matrix(0.946409 0.32297 -0.337918 0.941176 23.2607 43.9677)" fill="rgb(255,255,255)" stroke="none" stroke-width="1"/><circle id="eUX5juTsCQ025" r="5" transform="matrix(0.946409 0.32297 -0.337918 0.941176 42.1889 50.4271)" fill="rgb(255,255,255)" stroke="none" stroke-width="1"/><circle id="eUX5juTsCQ026" r="5" transform="matrix(0.946409 0.32297 -0.337918 0.941176 61.117 56.8865)" fill="rgb(255,255,255)" stroke="none" stroke-width="1"/><circle id="eUX5juTsCQ027" r="5" transform="matrix(0.946409 0.32297 -0.337918 0.941176 80.0453 63.3459)" fill="rgb(255,255,255)" stroke="none" stroke-width="1"/><circle id="eUX5juTsCQ028" r="5" transform="matrix(0.946409 0.32297 -0.337918 0.941176 98.9735 69.8053)" fill="rgb(255,255,255)" stroke="none" stroke-width="1"/></g><clipPath id="eUX5juTsCQ029"><rect id="eUX5juTsCQ030" width="100" height="20" rx="0" ry="0" transform="matrix(0.946409 0.32297 -0.337918 0.941176 20.2183 37.647)" fill="rgb(255,255,255)" stroke="none" stroke-width="1"/></clipPath></g><g id="eUX5juTsCQ031" clip-path="url(#eUX5juTsCQ038)"><g id="eUX5juTsCQ032"><circle id="eUX5juTsCQ033" r="5" transform="matrix(0.946409 0.32297 -0.337918 0.941176 16.5024 62.7913)" fill="rgb(255,255,255)" stroke="none" stroke-width="1"/><circle id="eUX5juTsCQ034" r="5" transform="matrix(0.946409 0.32297 -0.337918 0.941176 35.4306 69.2507)" fill="rgb(255,255,255)" stroke="none" stroke-width="1"/><circle id="eUX5juTsCQ035" r="5" transform="matrix(0.946409 0.32297 -0.337918 0.941176 54.3587 75.7101)" fill="rgb(255,255,255)" stroke="none" stroke-width="1"/><circle id="eUX5juTsCQ036" r="5" transform="matrix(0.946409 0.32297 -0.337918 0.941176 73.287 82.1695)" fill="rgb(255,255,255)" stroke="none" stroke-width="1"/><circle id="eUX5juTsCQ037" r="5" transform="matrix(0.946409 0.32297 -0.337918 0.941176 92.2152 88.629)" fill="rgb(255,255,255)" stroke="none" stroke-width="1"/></g><clipPath id="eUX5juTsCQ038"><rect id="eUX5juTsCQ039" width="100" height="20" rx="0" ry="0" transform="matrix(0.946409 0.32297 -0.337918 0.941176 13.46 56.4706)" fill="rgb(255,255,255)" stroke="none" stroke-width="1"/></clipPath></g><g id="eUX5juTsCQ040" clip-path="url(#eUX5juTsCQ047)"><g id="eUX5juTsCQ041"><circle id="eUX5juTsCQ042" r="5" transform="matrix(0.946409 0.32297 -0.337918 0.941176 9.74399 81.6148)" fill="rgb(255,255,255)" stroke="none" stroke-width="1"/><circle id="eUX5juTsCQ043" r="5" transform="matrix(0.946409 0.32297 -0.337918 0.941176 28.6722 88.0741)" fill="rgb(255,255,255)" stroke="none" stroke-width="1"/><circle id="eUX5juTsCQ044" r="5" transform="matrix(0.946409 0.32297 -0.337918 0.941176 47.6003 94.5336)" fill="rgb(255,255,255)" stroke="none" stroke-width="1"/><circle id="eUX5juTsCQ045" r="5" transform="matrix(0.946409 0.32297 -0.337918 0.941176 66.5285 100.993)" fill="rgb(255,255,255)" stroke="none" stroke-width="1"/><circle id="eUX5juTsCQ046" r="5" transform="matrix(0.946409 0.32297 -0.337918 0.941176 85.4568 107.452)" fill="rgb(255,255,255)" stroke="none" stroke-width="1"/></g><clipPath id="eUX5juTsCQ047"><rect id="eUX5juTsCQ048" width="100" height="20" rx="0" ry="0" transform="matrix(0.946409 0.32297 -0.337918 0.941176 6.70154 75.2941)" fill="rgb(255,255,255)" stroke="none" stroke-width="1"/></clipPath></g></g><clipPath id="eUX5juTsCQ049"><rect id="eUX5juTsCQ050" width="92.6146" height="99.8318" rx="0" ry="0" transform="matrix(0.946409 0.32297 -0.337918 0.941176 33.735 0)" fill="rgb(255,255,255)" stroke="none" stroke-width="1"/></clipPath></g></g></svg>