<svg width="252" height="205" viewBox="0 0 252 205" fill="none" xmlns="http://www.w3.org/2000/svg">
<path d="M75.3417 55.8734C74.9997 52.1786 70.5142 50.8398 69.1344 54.0496V54.0496C68.8981 54.5993 68.8021 55.2468 68.8531 55.8796C81.3431 210.794 121.507 231.675 244.62 164.406C245.325 164.021 245.912 163.372 246.254 162.577V162.577C247.835 158.898 244.162 154.642 240.822 156.262C135.559 207.353 88.8976 202.32 75.3417 55.8734Z" fill="#A8F3E6"/>
<path d="M91.6444 87.2392C91.253 84.9181 88.4482 84.2071 87.5768 86.2345V86.2345C87.3947 86.6581 87.3403 87.1635 87.4167 87.6491C102.178 181.36 130.01 196.289 209.796 163.178C210.346 162.949 210.806 162.49 211.061 161.899V161.899C212.032 159.64 209.904 156.973 207.764 157.741C138.493 182.621 106.785 177.027 91.6444 87.2392Z" fill="#A8F3E6"/>
</svg>
