<svg width="244" height="243" viewBox="0 0 244 243" fill="none" xmlns="http://www.w3.org/2000/svg">
<path d="M64.2101 163.362C58.78 168.531 49.0608 166.083 46.6129 158.747C45.5002 155.412 46.2668 151.853 48.6526 149.426C93.3176 103.989 126.666 87.9381 211.889 107.846C215.473 108.684 218.429 111.348 219.56 114.738C221.986 122.009 215.34 128.579 207.656 126.771C144.245 111.853 108.549 121.156 64.2101 163.362Z" fill="#A8F3E6"/>
<path d="M67.8054 104.241C63.8672 108.386 56.3203 106.69 54.4498 101.085C53.6742 98.7603 54.1308 96.2765 55.6855 94.4909C84.9429 60.8878 107.27 49.3922 166.083 66.3625C168.56 67.0771 170.563 68.9802 171.353 71.3502C173.207 76.905 167.92 81.8332 162.108 80.1897C119.906 68.2575 96.083 74.4736 67.8054 104.241Z" fill="#A8F3E6"/>
</svg>
