<svg width="371" height="332" viewBox="0 0 371 332" fill="none" xmlns="http://www.w3.org/2000/svg">
<path d="M229.868 29.6857C232.144 16.7141 249.518 9.73091 261.332 17.3257L265.858 20.2349C271.15 23.6371 273.916 29.3101 273.082 35.1369C255.344 159.121 219.809 223.264 50.3754 292.186C44.0313 294.767 36.6409 294.185 31.198 290.686L27.0633 288.028C15.225 280.418 18.0884 264.038 31.9148 258.482C160.259 206.902 208.722 150.241 229.868 29.6857Z" fill="#FFF389"/>
<path d="M297.54 129.576C298.966 118.367 313.911 111.923 324.081 118.461C328.232 121.129 330.539 125.48 330.179 130.065C323.378 216.585 300.407 260.565 180.455 302.826C175.413 304.602 169.731 304.006 165.496 301.284C155.418 294.805 158.339 280.747 170.308 276.446C255.454 245.848 287.505 208.434 297.54 129.576Z" fill="#FFF389"/>
</svg>
