<svg width="220" height="171" viewBox="0 0 220 171" fill="none" xmlns="http://www.w3.org/2000/svg">
<path d="M10.8416 66.1346C12.7266 61.8726 17.3039 59.2659 21.9534 59.5823C185.501 70.7111 65.6087 53.2873 181.867 142.508C186.268 145.885 187.994 151.933 185.75 157.007C182.725 163.845 174.172 166.206 168.159 161.762C53.4298 76.9654 164.527 87.7466 20.4981 81.6341C12.7256 81.3042 7.69489 73.2493 10.8416 66.1346Z" fill="#FFF389"/>
<path d="M51.9965 41.2325C53.5158 37.7971 57.2011 35.6921 60.9494 35.9382C192.297 44.5608 96.048 30.7637 189.212 102.526C192.76 105.259 194.147 110.14 192.336 114.236C189.889 119.769 182.97 121.678 178.111 118.073C86.2615 49.9314 175.342 58.3594 59.8239 53.7522C53.5358 53.5014 49.451 46.9878 51.9965 41.2325Z" fill="#FFF389"/>
</svg>
