<svg id="eSezVLqsZt21" xmlns="http://www.w3.org/2000/svg" xmlns:xlink="http://www.w3.org/1999/xlink" viewBox="0 0 257 154" shape-rendering="geometricPrecision" text-rendering="geometricPrecision"><style><![CDATA[#eSezVLqsZt22_tr {animation: eSezVLqsZt22_tr__tr 3000ms linear infinite normal forwards}@keyframes eSezVLqsZt22_tr__tr { 0% {transform: translate(63.896212px,83.984509px) rotate(0deg)} 100% {transform: translate(63.896212px,83.984509px) rotate(-178.988919deg)}} #eSezVLqsZt251_tr {animation: eSezVLqsZt251_tr__tr 3000ms linear infinite normal forwards}@keyframes eSezVLqsZt251_tr__tr { 0% {transform: translate(186.027431px,65.097916px) rotate(2.183748deg)} 100% {transform: translate(186.027431px,65.097916px) rotate(184.139457deg)}}]]></style><g id="eSezVLqsZt22_tr" transform="translate(63.896212,83.984509) rotate(0)"><g id="eSezVLqsZt22" transform="translate(-60.643965,-83.628849)" clip-path="url(#eSezVLqsZt249)"><g id="eSezVLqsZt23"><g id="eSezVLqsZt24" clip-path="url(#eSezVLqsZt211)"><g id="eSezVLqsZt25"><circle id="eSezVLqsZt26" r="5" transform="matrix(0.943848 0.330381 -0.330381 0.943848 36.105357 32.659717)" fill="rgb(255,255,255)" stroke="none" stroke-width="1"/><circle id="eSezVLqsZt27" r="5" transform="matrix(0.943848 0.330381 -0.330381 0.943848 54.982351 39.267252)" fill="rgb(255,255,255)" stroke="none" stroke-width="1"/><circle id="eSezVLqsZt28" r="5" transform="matrix(0.943848 0.330381 -0.330381 0.943848 73.859339 45.87492)" fill="rgb(255,255,255)" stroke="none" stroke-width="1"/><circle id="eSezVLqsZt29" r="5" transform="matrix(0.943848 0.330381 -0.330381 0.943848 92.736233 52.482455)" fill="rgb(255,255,255)" stroke="none" stroke-width="1"/><circle id="eSezVLqsZt210" r="5" transform="matrix(0.943848 0.330381 -0.330381 0.943848 111.613032 59.090057)" fill="rgb(255,255,255)" stroke="none" stroke-width="1"/></g><clipPath id="eSezVLqsZt211"><rect id="eSezVLqsZt212" width="100" height="20" rx="0" ry="0" transform="matrix(0.943848 0.330381 -0.330381 0.943848 33.038 26.2886)" fill="rgb(255,255,255)" stroke="none" stroke-width="1"/></clipPath></g><g id="eSezVLqsZt213" clip-path="url(#eSezVLqsZt220)"><g id="eSezVLqsZt214"><circle id="eSezVLqsZt215" r="5" transform="matrix(0.943848 0.330381 -0.330381 0.943848 29.497789 51.536695)" fill="rgb(255,255,255)" stroke="none" stroke-width="1"/><circle id="eSezVLqsZt216" r="5" transform="matrix(0.943848 0.330381 -0.330381 0.943848 48.374683 58.14434)" fill="rgb(255,255,255)" stroke="none" stroke-width="1"/><circle id="eSezVLqsZt217" r="5" transform="matrix(0.943848 0.330381 -0.330381 0.943848 67.251671 64.751908)" fill="rgb(255,255,255)" stroke="none" stroke-width="1"/><circle id="eSezVLqsZt218" r="5" transform="matrix(0.943848 0.330381 -0.330381 0.943848 86.128565 71.359543)" fill="rgb(255,255,255)" stroke="none" stroke-width="1"/><circle id="eSezVLqsZt219" r="5" transform="matrix(0.943848 0.330381 -0.330381 0.943848 105.00603 77.967144)" fill="rgb(255,255,255)" stroke="none" stroke-width="1"/></g><clipPath id="eSezVLqsZt220"><rect id="eSezVLqsZt221" width="100" height="20" rx="0" ry="0" transform="matrix(0.943848 0.330381 -0.330381 0.943848 26.4304 45.1655)" fill="rgb(255,255,255)" stroke="none" stroke-width="1"/></clipPath></g><g id="eSezVLqsZt222" clip-path="url(#eSezVLqsZt229)"><g id="eSezVLqsZt223"><circle id="eSezVLqsZt224" r="5" transform="matrix(0.943848 0.330381 -0.330381 0.943848 22.890254 70.413599)" fill="rgb(255,255,255)" stroke="none" stroke-width="1"/><circle id="eSezVLqsZt225" r="5" transform="matrix(0.943848 0.330381 -0.330381 0.943848 41.767148 77.021194)" fill="rgb(255,255,255)" stroke="none" stroke-width="1"/><circle id="eSezVLqsZt226" r="5" transform="matrix(0.943848 0.330381 -0.330381 0.943848 60.644136 83.628802)" fill="rgb(255,255,255)" stroke="none" stroke-width="1"/><circle id="eSezVLqsZt227" r="5" transform="matrix(0.943848 0.330381 -0.330381 0.943848 79.521029 90.236437)" fill="rgb(255,255,255)" stroke="none" stroke-width="1"/><circle id="eSezVLqsZt228" r="5" transform="matrix(0.943848 0.330381 -0.330381 0.943848 98.398017 96.844005)" fill="rgb(255,255,255)" stroke="none" stroke-width="1"/></g><clipPath id="eSezVLqsZt229"><rect id="eSezVLqsZt230" width="100" height="20" rx="0" ry="0" transform="matrix(0.943848 0.330381 -0.330381 0.943848 19.8228 64.0425)" fill="rgb(255,255,255)" stroke="none" stroke-width="1"/></clipPath></g><g id="eSezVLqsZt231" clip-path="url(#eSezVLqsZt238)"><g id="eSezVLqsZt232"><circle id="eSezVLqsZt233" r="5" transform="matrix(0.943848 0.330381 -0.330381 0.943848 16.282492 89.290602)" fill="rgb(255,255,255)" stroke="none" stroke-width="1"/><circle id="eSezVLqsZt234" r="5" transform="matrix(0.943848 0.330381 -0.330381 0.943848 35.15948 95.898202)" fill="rgb(255,255,255)" stroke="none" stroke-width="1"/><circle id="eSezVLqsZt235" r="5" transform="matrix(0.943848 0.330381 -0.330381 0.943848 54.036502 102.505979)" fill="rgb(255,255,255)" stroke="none" stroke-width="1"/><circle id="eSezVLqsZt236" r="5" transform="matrix(0.943848 0.330381 -0.330381 0.943848 72.913393 109.113048)" fill="rgb(255,255,255)" stroke="none" stroke-width="1"/><circle id="eSezVLqsZt237" r="5" transform="matrix(0.943848 0.330381 -0.330381 0.943848 91.790449 115.720993)" fill="rgb(255,255,255)" stroke="none" stroke-width="1"/></g><clipPath id="eSezVLqsZt238"><rect id="eSezVLqsZt239" width="100" height="20" rx="0" ry="0" transform="matrix(0.943848 0.330381 -0.330381 0.943848 13.2152 82.9194)" fill="rgb(255,255,255)" stroke="none" stroke-width="1"/></clipPath></g><g id="eSezVLqsZt240" clip-path="url(#eSezVLqsZt247)"><g id="eSezVLqsZt241"><circle id="eSezVLqsZt242" r="5" transform="matrix(0.943848 0.330381 -0.330381 0.943848 9.674929 108.168002)" fill="rgb(255,255,255)" stroke="none" stroke-width="1"/><circle id="eSezVLqsZt243" r="5" transform="matrix(0.943848 0.330381 -0.330381 0.943848 28.551877 114.775001)" fill="rgb(255,255,255)" stroke="none" stroke-width="1"/><circle id="eSezVLqsZt244" r="5" transform="matrix(0.943848 0.330381 -0.330381 0.943848 47.428839 121.383004)" fill="rgb(255,255,255)" stroke="none" stroke-width="1"/><circle id="eSezVLqsZt245" r="5" transform="matrix(0.943848 0.330381 -0.330381 0.943848 66.305825 127.990036)" fill="rgb(255,255,255)" stroke="none" stroke-width="1"/><circle id="eSezVLqsZt246" r="5" transform="matrix(0.943848 0.330381 -0.330381 0.943848 85.182781 134.597981)" fill="rgb(255,255,255)" stroke="none" stroke-width="1"/></g><clipPath id="eSezVLqsZt247"><rect id="eSezVLqsZt248" width="100" height="20" rx="0" ry="0" transform="matrix(0.943848 0.330381 -0.330381 0.943848 6.6076 101.796)" fill="rgb(255,255,255)" stroke="none" stroke-width="1"/></clipPath></g></g><clipPath id="eSezVLqsZt249"><rect id="eSezVLqsZt250" width="100" height="100" rx="0" ry="0" transform="matrix(0.943848 0.330381 -0.330381 0.943848 33.038 26.2886)" fill="rgb(255,255,255)" stroke="none" stroke-width="1"/></clipPath></g></g><g id="eSezVLqsZt251_tr" transform="translate(186.027431,65.097916) rotate(2.183748)"><g id="eSezVLqsZt251" transform="translate(-189.355499,-57.340066)" clip-path="url(#eSezVLqsZt298)"><g id="eSezVLqsZt252"><g id="eSezVLqsZt253" clip-path="url(#eSezVLqsZt260)"><g id="eSezVLqsZt254"><circle id="eSezVLqsZt255" r="5" transform="matrix(0.943848 0.330381 -0.330381 0.943848 164.817042 6.371174)" fill="rgb(255,255,255)" stroke="none" stroke-width="1"/><circle id="eSezVLqsZt256" r="5" transform="matrix(0.943848 0.330381 -0.330381 0.943848 183.694043 12.978704)" fill="rgb(255,255,255)" stroke="none" stroke-width="1"/><circle id="eSezVLqsZt257" r="5" transform="matrix(0.943848 0.330381 -0.330381 0.943848 202.570998 19.586367)" fill="rgb(255,255,255)" stroke="none" stroke-width="1"/><circle id="eSezVLqsZt258" r="5" transform="matrix(0.943848 0.330381 -0.330381 0.943848 221.447986 26.193935)" fill="rgb(255,255,255)" stroke="none" stroke-width="1"/><circle id="eSezVLqsZt259" r="5" transform="matrix(0.943848 0.330381 -0.330381 0.943848 240.324974 32.801603)" fill="rgb(255,255,255)" stroke="none" stroke-width="1"/></g><clipPath id="eSezVLqsZt260"><rect id="eSezVLqsZt261" width="100" height="20" rx="0" ry="0" transform="matrix(0.943848 0.330381 -0.330381 0.943848 161.749 0)" fill="rgb(255,255,255)" stroke="none" stroke-width="1"/></clipPath></g><g id="eSezVLqsZt262" clip-path="url(#eSezVLqsZt269)"><g id="eSezVLqsZt263"><circle id="eSezVLqsZt264" r="5" transform="matrix(0.943848 0.330381 -0.330381 0.943848 158.209009 25.248092)" fill="rgb(255,255,255)" stroke="none" stroke-width="1"/><circle id="eSezVLqsZt265" r="5" transform="matrix(0.943848 0.330381 -0.330381 0.943848 177.085997 31.85566)" fill="rgb(255,255,255)" stroke="none" stroke-width="1"/><circle id="eSezVLqsZt266" r="5" transform="matrix(0.943848 0.330381 -0.330381 0.943848 195.962985 38.463329)" fill="rgb(255,255,255)" stroke="none" stroke-width="1"/><circle id="eSezVLqsZt267" r="5" transform="matrix(0.943848 0.330381 -0.330381 0.943848 214.839973 45.070897)" fill="rgb(255,255,255)" stroke="none" stroke-width="1"/><circle id="eSezVLqsZt268" r="5" transform="matrix(0.943848 0.330381 -0.330381 0.943848 233.716962 51.678465)" fill="rgb(255,255,255)" stroke="none" stroke-width="1"/></g><clipPath id="eSezVLqsZt269"><rect id="eSezVLqsZt270" width="100" height="20" rx="0" ry="0" transform="matrix(0.943848 0.330381 -0.330381 0.943848 155.142 18.877)" fill="rgb(255,255,255)" stroke="none" stroke-width="1"/></clipPath></g><g id="eSezVLqsZt271" clip-path="url(#eSezVLqsZt278)"><g id="eSezVLqsZt272"><circle id="eSezVLqsZt273" r="5" transform="matrix(0.943848 0.330381 -0.330381 0.943848 151.602041 44.124984)" fill="rgb(255,255,255)" stroke="none" stroke-width="1"/><circle id="eSezVLqsZt274" r="5" transform="matrix(0.943848 0.330381 -0.330381 0.943848 170.478996 50.732647)" fill="rgb(255,255,255)" stroke="none" stroke-width="1"/><circle id="eSezVLqsZt275" r="5" transform="matrix(0.943848 0.330381 -0.330381 0.943848 189.35504 57.340284)" fill="rgb(255,255,255)" stroke="none" stroke-width="1"/><circle id="eSezVLqsZt276" r="5" transform="matrix(0.943848 0.330381 -0.330381 0.943848 208.232028 63.947853)" fill="rgb(255,255,255)" stroke="none" stroke-width="1"/><circle id="eSezVLqsZt277" r="5" transform="matrix(0.943848 0.330381 -0.330381 0.943848 227.109016 70.555521)" fill="rgb(255,255,255)" stroke="none" stroke-width="1"/></g><clipPath id="eSezVLqsZt278"><rect id="eSezVLqsZt279" width="100" height="20" rx="0" ry="0" transform="matrix(0.943848 0.330381 -0.330381 0.943848 148.534 37.7539)" fill="rgb(255,255,255)" stroke="none" stroke-width="1"/></clipPath></g><g id="eSezVLqsZt280" clip-path="url(#eSezVLqsZt287)"><g id="eSezVLqsZt281"><circle id="eSezVLqsZt282" r="5" transform="matrix(0.943848 0.330381 -0.330381 0.943848 144.993995 63.00194)" fill="rgb(255,255,255)" stroke="none" stroke-width="1"/><circle id="eSezVLqsZt283" r="5" transform="matrix(0.943848 0.330381 -0.330381 0.943848 163.870983 69.609608)" fill="rgb(255,255,255)" stroke="none" stroke-width="1"/><circle id="eSezVLqsZt284" r="5" transform="matrix(0.943848 0.330381 -0.330381 0.943848 182.747971 76.217176)" fill="rgb(255,255,255)" stroke="none" stroke-width="1"/><circle id="eSezVLqsZt285" r="5" transform="matrix(0.943848 0.330381 -0.330381 0.943848 201.625059 82.824745)" fill="rgb(255,255,255)" stroke="none" stroke-width="1"/><circle id="eSezVLqsZt286" r="5" transform="matrix(0.943848 0.330381 -0.330381 0.943848 220.502047 89.432413)" fill="rgb(255,255,255)" stroke="none" stroke-width="1"/></g><clipPath id="eSezVLqsZt287"><rect id="eSezVLqsZt288" width="100" height="20" rx="0" ry="0" transform="matrix(0.943848 0.330381 -0.330381 0.943848 141.927 56.6309)" fill="rgb(255,255,255)" stroke="none" stroke-width="1"/></clipPath></g><g id="eSezVLqsZt289" clip-path="url(#eSezVLqsZt296)"><g id="eSezVLqsZt290"><circle id="eSezVLqsZt291" r="5" transform="matrix(0.943848 0.330381 -0.330381 0.943848 138.386049 81.878996)" fill="rgb(255,255,255)" stroke="none" stroke-width="1"/><circle id="eSezVLqsZt292" r="5" transform="matrix(0.943848 0.330381 -0.330381 0.943848 157.263037 88.486564)" fill="rgb(255,255,255)" stroke="none" stroke-width="1"/><circle id="eSezVLqsZt293" r="5" transform="matrix(0.943848 0.330381 -0.330381 0.943848 176.140025 95.094232)" fill="rgb(255,255,255)" stroke="none" stroke-width="1"/><circle id="eSezVLqsZt294" r="5" transform="matrix(0.943848 0.330381 -0.330381 0.943848 195.017047 101.701989)" fill="rgb(255,255,255)" stroke="none" stroke-width="1"/><circle id="eSezVLqsZt295" r="5" transform="matrix(0.943848 0.330381 -0.330381 0.943848 213.894033 108.308991)" fill="rgb(255,255,255)" stroke="none" stroke-width="1"/></g><clipPath id="eSezVLqsZt296"><rect id="eSezVLqsZt297" width="100" height="20" rx="0" ry="0" transform="matrix(0.943848 0.330381 -0.330381 0.943848 135.319 75.5078)" fill="rgb(255,255,255)" stroke="none" stroke-width="1"/></clipPath></g></g><clipPath id="eSezVLqsZt298"><rect id="eSezVLqsZt299" width="100" height="100" rx="0" ry="0" transform="matrix(0.943848 0.330381 -0.330381 0.943848 161.749 0)" fill="rgb(255,255,255)" stroke="none" stroke-width="1"/></clipPath></g></g></svg>