<svg width="227" height="225" viewBox="0 0 227 225" fill="none" xmlns="http://www.w3.org/2000/svg">
<path d="M22.5312 86.6282C12.8676 85.1506 7.82727 73.6141 13.5729 65.5553C16.2076 61.8599 20.5769 59.8861 25.025 60.425C108.35 70.521 151.808 91.7105 198.928 192.391C200.907 196.62 200.453 201.647 197.775 205.403C192.08 213.391 179.999 211.862 175.811 202.86C140.788 127.583 102.493 98.8539 22.5312 86.6282Z" fill="#FFF389"/>
<path d="M87.5144 45.1029C80.0858 44.3318 75.9542 35.526 80.3469 29.3648C82.1858 26.7856 85.177 25.3278 88.2957 25.5237C146.898 29.2051 176.778 42.8209 205.901 114.757C207.129 117.789 206.718 121.276 204.844 123.905C200.491 130.011 191.187 128.564 188.304 121.538C167.103 69.8811 141.533 50.7096 87.5144 45.1029Z" fill="#FFF389"/>
</svg>
