<svg width="132" height="35" viewBox="0 0 132 35" fill="none" xmlns="http://www.w3.org/2000/svg">
<g clip-path="url(#clip0_147_3)">
<path fill-rule="evenodd" clip-rule="evenodd" d="M17.4044 0.0649609C11.04 0.612322 5.88221 3.67677 2.7497 8.40695C0.714108 11.4805 -0.24275 15.1218 0.052326 18.8587C0.774335 28.0008 9.41385 35.741 20.4721 34.9441C30.3938 34.2288 38.58 26.1124 37.7415 16.1296C37.4343 12.4747 36.0373 9.46246 33.7982 6.74251C32.7843 5.51103 32.5844 5.49093 31.5256 4.48274C30.2128 3.23214 27.4363 1.79649 25.6644 1.1613C23.2885 0.309313 20.2632 -0.181011 17.4044 0.0649609Z" fill="#108DE8"/>
<path fill-rule="evenodd" clip-rule="evenodd" d="M7.95464 12.4003C7.71338 13.0338 7.857 20.0782 7.857 21.3849C7.857 22.7985 7.55016 23.2399 9.98204 23.9963C16.421 25.9987 22.7968 19.2091 29.1994 22.5684C29.4962 22.724 29.8576 23.0432 29.9424 22.5276L29.9449 13.4655C29.9453 12.4907 30.0411 12.1854 29.3302 11.7353C23.6008 8.10564 17.3974 14.3139 11.5839 13.6175C9.43252 13.3599 8.54159 12.3617 7.95464 12.4003Z" fill="white"/>
<path fill-rule="evenodd" clip-rule="evenodd" d="M52.1899 26.3703C54.6998 26.5333 57.6235 24.7632 58.6538 23.7495C62.2321 20.2278 62.3184 15.1324 58.7161 11.4448C57.3748 10.0717 54.2344 8.55404 52.2313 8.76663L44.9973 8.77149L44.9955 26.3483L52.1899 26.3703ZM49.0592 22.5618C49.592 22.6461 51.7804 22.6146 52.3816 22.5644C57.3234 22.1535 59.069 16.009 54.9144 13.4352C54.2248 13.0078 53.4575 12.6672 52.4508 12.5654C51.8995 12.5094 49.5446 12.4747 49.0567 12.5547L49.0592 22.5618Z" fill="#108DE8"/>
<path fill-rule="evenodd" clip-rule="evenodd" d="M115.55 26.4027L119.665 26.4011L119.669 22.6127L127.834 22.614L127.858 26.4014L131.97 26.4021C131.973 24.2969 131.971 22.2085 131.971 20.1205C131.971 18.2396 132.145 15.8849 131.635 14.1786C130.772 11.2908 127.752 8.72965 123.778 8.71539C119.761 8.70113 116.845 11.2548 115.914 14.1009C115.363 15.7851 115.547 18.1997 115.547 20.0538C115.547 22.1667 115.523 24.291 115.55 26.4027ZM119.668 18.8012L127.854 18.8045C127.874 17.1796 128.066 15.6003 127.264 14.3553C126.69 13.4647 125.48 12.5327 123.78 12.5262C122.046 12.5197 120.889 13.4145 120.271 14.3371C119.46 15.5472 119.643 17.2133 119.668 18.8012Z" fill="#108DE8"/>
<path fill-rule="evenodd" clip-rule="evenodd" d="M68.485 26.3984L72.5858 26.4016C72.5883 25.6109 72.4756 23.1871 72.6257 22.6125L80.7591 22.6135L80.788 26.399L84.8941 26.4026C84.8727 24.3036 84.8923 22.2078 84.8923 20.1204C84.8923 18.3296 85.0748 15.7639 84.5588 14.1762C82.2089 6.94583 71.269 6.89462 68.841 14.104C68.2911 15.7367 68.4789 18.2353 68.4789 20.0536C68.4789 22.152 68.4262 24.3071 68.485 26.3984ZM72.5883 18.8008L80.7841 18.8047C80.8012 17.2034 80.9936 15.5944 80.1897 14.3519C78.7185 12.0779 74.9774 11.7505 73.1976 14.3409C72.384 15.525 72.5615 17.2417 72.5883 18.8008Z" fill="#108DE8"/>
<path fill-rule="evenodd" clip-rule="evenodd" d="M92.1122 15.6315L92.0562 18.2571C92.0562 20.4585 91.9358 24.5652 92.0648 26.3512L96.0861 26.3531C96.1794 25.1012 95.9407 16.1675 96.1955 15.8829C96.1965 14.1469 98.1869 12.5327 100.2 12.5259C101.437 12.5216 102.338 12.9792 102.995 13.5224C103.507 13.9466 104.291 14.913 104.276 15.892C104.464 15.9883 104.315 25.307 104.375 26.3505L108.4 26.3531L108.368 15.6849C108.469 14.8491 107.915 13.5571 107.56 12.9011C104.58 7.39285 96.0266 7.31993 92.9618 12.8062C92.6025 13.4495 92.0274 14.7766 92.1122 15.6315Z" fill="#108DE8"/>
<path fill-rule="evenodd" clip-rule="evenodd" d="M52.1899 26.3703L44.9955 26.3483L44.9973 8.77148L52.2313 8.76662C52.0998 8.59908 49.0816 8.69921 48.6586 8.69921C47.6063 8.69921 45.9449 8.60912 44.9666 8.71347C44.8743 8.99347 44.8365 25.9529 44.9602 26.4099C45.6263 26.488 50.2684 26.4277 51.7359 26.4309L52.1393 26.3924C52.1521 26.3891 52.1732 26.3778 52.1899 26.3703Z" fill="#79BBE7"/>
<path fill-rule="evenodd" clip-rule="evenodd" d="M104.276 15.8921C104.319 17.3301 104.19 25.8979 104.338 26.4116L108.437 26.4278C108.544 26.0159 108.478 19.3351 108.478 18.3237C108.478 17.8402 108.62 15.9408 108.368 15.6851L108.4 26.3532L104.374 26.3507C104.315 25.3071 104.464 15.9884 104.276 15.8921Z" fill="#79BBE7"/>
<path fill-rule="evenodd" clip-rule="evenodd" d="M96.1954 15.8828C95.9406 16.1674 96.1794 25.1011 96.086 26.353L92.0647 26.3511C91.9357 24.5651 92.0562 20.4584 92.0562 18.257L92.1121 15.6313C91.8833 15.7218 91.9856 20.4014 91.9856 20.9854C91.9856 21.8357 91.8744 25.9259 92.0344 26.4133L96.1313 26.4269L96.1954 15.8828Z" fill="#79BBE7"/>
</g>
<defs>
<clipPath id="clip0_147_3">
<rect width="132" height="35" fill="white"/>
</clipPath>
</defs>
</svg>
