<svg width="117" height="123" viewBox="0 0 117 123" fill="none" xmlns="http://www.w3.org/2000/svg">
<g clip-path="url(#clip0_101_4)">
<g clip-path="url(#clip1_101_4)">
<circle r="5" transform="matrix(0.946409 0.32297 -0.337918 0.941176 36.7774 6.32073)" fill="white"/>
<circle r="5" transform="matrix(0.946409 0.32297 -0.337918 0.941176 55.7057 12.7801)" fill="white"/>
<circle r="5" transform="matrix(0.946409 0.32297 -0.337918 0.941176 74.6338 19.2396)" fill="white"/>
<circle r="5" transform="matrix(0.946409 0.32297 -0.337918 0.941176 93.562 25.6989)" fill="white"/>
<circle r="5" transform="matrix(0.946409 0.32297 -0.337918 0.941176 112.49 32.1584)" fill="white"/>
</g>
<g clip-path="url(#clip2_101_4)">
<circle r="5" transform="matrix(0.946409 0.32297 -0.337918 0.941176 30.0191 25.1442)" fill="white"/>
<circle r="5" transform="matrix(0.946409 0.32297 -0.337918 0.941176 48.9474 31.6036)" fill="white"/>
<circle r="5" transform="matrix(0.946409 0.32297 -0.337918 0.941176 67.8755 38.063)" fill="white"/>
<circle r="5" transform="matrix(0.946409 0.32297 -0.337918 0.941176 86.8037 44.5224)" fill="white"/>
<circle r="5" transform="matrix(0.946409 0.32297 -0.337918 0.941176 105.732 50.9819)" fill="white"/>
</g>
<g clip-path="url(#clip3_101_4)">
<circle r="5" transform="matrix(0.946409 0.32297 -0.337918 0.941176 23.2607 43.9677)" fill="white"/>
<circle r="5" transform="matrix(0.946409 0.32297 -0.337918 0.941176 42.1889 50.4271)" fill="white"/>
<circle r="5" transform="matrix(0.946409 0.32297 -0.337918 0.941176 61.117 56.8865)" fill="white"/>
<circle r="5" transform="matrix(0.946409 0.32297 -0.337918 0.941176 80.0453 63.3459)" fill="white"/>
<circle r="5" transform="matrix(0.946409 0.32297 -0.337918 0.941176 98.9735 69.8053)" fill="white"/>
</g>
<g clip-path="url(#clip4_101_4)">
<circle r="5" transform="matrix(0.946409 0.32297 -0.337918 0.941176 16.5024 62.7913)" fill="white"/>
<circle r="5" transform="matrix(0.946409 0.32297 -0.337918 0.941176 35.4306 69.2507)" fill="white"/>
<circle r="5" transform="matrix(0.946409 0.32297 -0.337918 0.941176 54.3587 75.7101)" fill="white"/>
<circle r="5" transform="matrix(0.946409 0.32297 -0.337918 0.941176 73.287 82.1695)" fill="white"/>
<circle r="5" transform="matrix(0.946409 0.32297 -0.337918 0.941176 92.2152 88.629)" fill="white"/>
</g>
<g clip-path="url(#clip5_101_4)">
<circle r="5" transform="matrix(0.946409 0.32297 -0.337918 0.941176 9.74399 81.6148)" fill="white"/>
<circle r="5" transform="matrix(0.946409 0.32297 -0.337918 0.941176 28.6722 88.0741)" fill="white"/>
<circle r="5" transform="matrix(0.946409 0.32297 -0.337918 0.941176 47.6003 94.5336)" fill="white"/>
<circle r="5" transform="matrix(0.946409 0.32297 -0.337918 0.941176 66.5285 100.993)" fill="white"/>
<circle r="5" transform="matrix(0.946409 0.32297 -0.337918 0.941176 85.4568 107.452)" fill="white"/>
</g>
</g>
<defs>
<clipPath id="clip0_101_4">
<rect width="87.9167" height="99.8318" fill="white" transform="matrix(0.946409 0.32297 -0.337918 0.941176 33.735 0)"/>
</clipPath>
<clipPath id="clip1_101_4">
<rect width="100" height="20" fill="white" transform="matrix(0.946409 0.32297 -0.337918 0.941176 33.735 0)"/>
</clipPath>
<clipPath id="clip2_101_4">
<rect width="100" height="20" fill="white" transform="matrix(0.946409 0.32297 -0.337918 0.941176 26.9767 18.8235)"/>
</clipPath>
<clipPath id="clip3_101_4">
<rect width="100" height="20" fill="white" transform="matrix(0.946409 0.32297 -0.337918 0.941176 20.2183 37.647)"/>
</clipPath>
<clipPath id="clip4_101_4">
<rect width="100" height="20" fill="white" transform="matrix(0.946409 0.32297 -0.337918 0.941176 13.46 56.4706)"/>
</clipPath>
<clipPath id="clip5_101_4">
<rect width="100" height="20" fill="white" transform="matrix(0.946409 0.32297 -0.337918 0.941176 6.70154 75.2941)"/>
</clipPath>
</defs>
</svg>
