<svg width="125" height="30" viewBox="0 0 125 30" fill="none" xmlns="http://www.w3.org/2000/svg">
<path d="M14.5069 29.0813C22.4557 29.0813 28.8994 22.7766 28.8994 14.9994C28.8994 7.22216 22.4557 0.91748 14.5069 0.91748C6.55813 0.91748 0.11438 7.22216 0.11438 14.9994C0.11438 22.7766 6.55813 29.0813 14.5069 29.0813Z" fill="#02AFD9"/>
<path fill-rule="evenodd" clip-rule="evenodd" d="M6.18893 18.1572C6.3531 20.4596 7.83066 22.2265 10.5669 22.3872C13.1936 22.4943 15.7657 22.4943 18.3925 22.3872C20.8003 22.2265 22.6062 20.4596 22.7704 18.1572C22.8799 16.9793 22.9346 15.8013 22.8799 14.6234C22.2779 11.4108 19.5417 11.3037 19.3228 11.3037H19.2681H10.0744C9.74601 11.3037 9.47239 11.036 9.47239 10.7147C9.47239 10.3935 9.74601 10.1793 10.0744 10.1793H19.3228C19.2133 8.03756 16.8055 7.60922 15.6562 7.55567H15.0543C13.5767 7.50213 12.0444 7.55567 10.5669 7.66276C7.77593 7.87693 6.3531 9.53678 6.18893 11.8927C6.02475 13.9809 6.02475 16.0691 6.18893 18.1572ZM20.0342 16.9257V17.7289C20.0342 17.9966 19.8153 18.2108 19.487 18.2108C19.2133 18.2108 18.9944 17.9966 18.9944 17.7289V16.9257C18.7208 16.7651 18.5566 16.5509 18.5566 16.2297C18.5566 15.8013 18.9944 15.4265 19.487 15.4265C19.9795 15.4265 20.4173 15.8013 20.4173 16.2297C20.4173 16.5509 20.2531 16.7651 20.0342 16.9257Z" fill="#FEFEFE"/>
<path fill-rule="evenodd" clip-rule="evenodd" d="M101.463 13.7149V16.285C101.463 16.285 100.533 17.9984 97.4686 18.3732C94.404 18.8016 94.404 16.9275 94.6229 16.4456C94.8418 15.9638 95.5532 15.3212 98.1253 14.8929C100.807 14.4645 101.463 13.7149 101.463 13.7149ZM105.075 11.2519V21.211H101.737V19.6047C100.643 20.5685 99.1103 21.4787 96.9761 21.5858C90.2997 21.7464 87.7277 14.5181 95.8269 12.3764C97.7422 11.8409 99.6029 12.0016 100.588 11.5197C101.245 11.1449 101.409 10.5559 100.971 10.0204C99.3292 7.87872 95.3891 8.73541 94.2946 11.6803L90.9564 10.8771C91.832 7.611 94.5135 6.16533 97.7422 5.84407C101.19 5.52281 105.075 7.34328 105.075 11.2519ZM41.8686 9.48502C39.4607 9.48502 37.4906 11.4126 37.4906 13.822C37.4906 16.1779 39.4607 18.1055 41.8686 18.1055C44.2765 18.1055 46.2466 16.1779 46.2466 13.822C46.2466 11.4126 44.2765 9.48502 41.8686 9.48502ZM50.5151 6.32596H46.2466V7.93226C44.9332 6.80785 43.182 6.11179 41.2119 6.11179C36.9434 6.11179 33.441 9.5921 33.441 13.8756C33.441 18.2126 36.9434 21.6929 41.2119 21.6929C43.182 21.6929 44.9332 20.9968 46.2466 19.8724V21.3181C46.2466 23.6204 44.5501 25.4409 42.1969 25.4409C40.2269 25.4409 38.6399 25.0661 37.3265 23.5669L34.5903 25.9764C36.834 28.3323 39.0777 29.0819 42.2517 29.0819C46.8485 29.0819 50.5151 26.0299 50.5151 20.8897V18.6409V6.32596ZM124.886 6.05824H120.398L115.911 15.6425L110.767 6.05824H106.225L113.667 19.7118L109.727 27.6362H114.269L124.886 6.05824ZM80.7229 9.48502C83.1855 9.48502 85.1556 11.4126 85.1556 13.822C85.1556 16.1779 83.1855 18.1055 80.7229 18.1055C78.3151 18.1055 76.345 16.1779 76.345 13.822C76.345 11.4126 78.3151 9.48502 80.7229 9.48502ZM72.1312 6.32596H76.345V7.93226C77.7131 6.80785 79.4643 6.11179 81.3796 6.11179C85.6481 6.11179 89.1505 9.5921 89.1505 13.8756C89.1505 18.2126 85.6481 21.6929 81.3796 21.6929C79.4643 21.6929 77.7131 20.9968 76.345 19.8724V27.6362H72.1312V6.32596ZM60.858 9.37793C63.5395 9.37793 65.6737 11.4126 65.6737 13.8756C65.6737 16.3921 63.5395 18.4267 60.858 18.4267C58.2312 18.4267 56.0969 16.3921 56.0969 13.8756C56.0969 11.4126 58.2312 9.37793 60.858 9.37793ZM60.858 5.79053C65.5643 5.79053 69.395 9.43147 69.395 13.8756C69.395 18.3732 65.5643 22.0142 60.858 22.0142C56.1517 22.0142 52.321 18.3732 52.321 13.8756C52.321 9.43147 56.1517 5.79053 60.858 5.79053Z" fill="#1D1819"/>
</svg>
