<svg width="63" height="64" viewBox="0 0 63 64" fill="none" xmlns="http://www.w3.org/2000/svg">
<mask id="mask0_46_80" style="mask-type:alpha" maskUnits="userSpaceOnUse" x="0" y="0" width="63" height="64">
<path d="M0 0.220703H62.7831V63.7804H0V0.220703Z" fill="white"/>
</mask>
<g mask="url(#mask0_46_80)">
<path fill-rule="evenodd" clip-rule="evenodd" d="M56.8883 63.7804H5.89475C2.65276 63.7804 0 61.0951 0 57.8128V6.18837C0 2.90628 2.65276 0.220703 5.89475 0.220703H56.8883C60.1306 0.220703 62.7831 2.90628 62.7831 6.18837V57.8128C62.7831 61.0951 60.1306 63.7804 56.8883 63.7804Z" fill="#E82529"/>
</g>
<path fill-rule="evenodd" clip-rule="evenodd" d="M13.5456 12.189H16.5201C16.7466 12.189 16.9205 12.3922 16.8883 12.6191L15.5068 22.3206C15.4536 22.694 15.7399 23.0284 16.1124 23.0284H21.3305C21.4788 23.0284 21.5923 23.1617 21.5708 23.31L21.1659 26.0964C21.145 26.2412 21.0223 26.3486 20.8775 26.3486H14.9773C13.2223 26.3486 11.5391 24.8914 11.7868 23.1323L13.1769 12.516C13.2013 12.3289 13.359 12.189 13.5456 12.189Z" fill="#FEFEFE"/>
<path fill-rule="evenodd" clip-rule="evenodd" d="M23.4642 16.0604L22.1026 25.9544C22.081 26.1113 22.2014 26.2514 22.3579 26.2514H25.2363C25.441 26.2514 25.6145 26.0987 25.6428 25.8934L26.9911 16.1604C27.0199 15.9361 26.8474 15.7373 26.624 15.7373H23.8309C23.646 15.7373 23.4897 15.8752 23.4642 16.0604Z" fill="#FEFEFE"/>
<path fill-rule="evenodd" clip-rule="evenodd" d="M29.4014 25.4923C28.5133 25.4598 28.0978 25.7416 27.5737 26.0581C27.7002 25.1661 28.6918 18.2146 28.7823 17.7875C28.878 17.3323 28.965 16.5726 29.3604 16.1895C29.8239 15.7398 30.5413 15.4824 34.1107 15.4707C37.7542 15.4588 38.4601 18.1135 38.2667 19.8384C38.1019 21.3148 37.5598 24.9626 37.4067 25.9818C37.3834 26.1367 37.2526 26.2508 37.0985 26.2508H34.284C34.0778 26.2508 33.9193 26.0667 33.9481 25.8602C34.0904 24.841 34.4721 22.1241 34.6016 21.3351C34.7623 20.3592 34.8909 19.2854 34.6337 18.8614C34.3764 18.4384 33.6047 18.1135 32.1261 18.3739L31.0324 26.2024C31.0324 26.2024 30.3287 25.5262 29.4014 25.4923Z" fill="#FEFEFE"/>
<path fill-rule="evenodd" clip-rule="evenodd" d="M41.3192 11.627H44.4413C44.5575 11.627 44.6469 11.7309 44.631 11.8474L42.6882 26.0951C42.6738 26.2009 42.5845 26.2796 42.479 26.2796H39.3965C39.2684 26.2796 39.1698 26.1651 39.1875 26.0367L41.1296 11.7945C41.1427 11.6985 41.2235 11.627 41.3192 11.627Z" fill="#FEFEFE"/>
<path fill-rule="evenodd" clip-rule="evenodd" d="M43.7352 20.2116L47.2637 16.0285C47.3748 15.8967 47.5375 15.8208 47.7088 15.8208H50.8063C51.0299 15.8208 51.1477 16.0889 50.9981 16.2569L47.3903 20.3103L50.6883 27.4911C50.8093 27.7546 50.6192 28.0561 50.3324 28.0561H47.5327C47.3864 28.0561 47.2536 27.9698 47.1926 27.8354L43.7352 20.2116Z" fill="#FEFEFE"/>
<path fill-rule="evenodd" clip-rule="evenodd" d="M27.5944 13.0577C27.3419 14.1358 26.383 14.938 25.3789 14.938C24.375 14.938 23.6051 14.064 23.8577 12.9862C24.1102 11.9081 24.9414 11.0342 26.1327 11.0342C27.1366 11.0342 27.8468 11.9796 27.5944 13.0577Z" fill="#FEFEFE"/>
<path fill-rule="evenodd" clip-rule="evenodd" d="M30.7677 28.773C30.5153 29.8511 29.5563 30.6533 28.5522 30.6533C27.5484 30.6533 26.7784 29.7794 27.0311 28.7015C27.2835 27.6234 28.1147 26.7495 29.3061 26.7495C30.3099 26.7495 31.0201 27.6949 30.7677 28.773Z" fill="#FEFEFE"/>
<path fill-rule="evenodd" clip-rule="evenodd" d="M45.8701 41.6563C45.6573 42.7216 44.6883 43.5141 43.6328 43.5134C42.5771 43.513 41.7249 42.6488 41.9377 41.5837C42.1505 40.5184 42.9817 39.6551 44.2343 39.6558C45.2898 39.6564 46.0828 40.591 45.8701 41.6563Z" fill="#FEFEFE"/>
<path fill-rule="evenodd" clip-rule="evenodd" d="M19.2949 36.3501H17.4047C17.3345 36.3501 17.2863 36.2786 17.3121 36.2124L18.957 31.9853C18.9884 31.9047 19.1057 31.9219 19.1133 32.008L19.4831 36.1415C19.4931 36.2534 19.4061 36.3501 19.2949 36.3501ZM23.8741 41.6583L21.7648 28.8769C21.6726 28.3181 21.1947 27.9087 20.6351 27.9087H18.5187C17.8732 27.9087 17.2872 28.2903 17.0199 28.885L11.338 41.6742C11.2556 41.8598 11.3903 42.0692 11.591 42.0681L14.5433 42.0507C14.7454 42.0496 14.9272 41.9269 15.0061 41.7389L15.9875 39.4015C16.0141 39.3378 16.0758 39.2965 16.1443 39.2965H19.7172C19.8048 39.2965 19.8783 39.3638 19.8868 39.4521L20.1 41.6638C20.1246 41.9212 20.3385 42.1176 20.5939 42.1176H23.4898C23.7306 42.1176 23.9138 41.8987 23.8741 41.6583Z" fill="#FEFEFE"/>
<path fill-rule="evenodd" clip-rule="evenodd" d="M22.4658 43.9736L23.1476 46.1062C23.2702 46.4571 23.3626 46.535 23.6022 46.4838C24.4634 46.2999 26.5446 45.6774 27.5629 44.2828C28.8902 42.4648 29.0723 39.2507 29.3066 37.6171C29.4995 36.2716 29.922 32.9595 30.065 31.8337C30.0907 31.6311 29.9349 31.4521 29.733 31.4521H27.0863C26.8524 31.4521 26.6547 31.6269 26.6233 31.8615C26.4099 33.4516 25.6413 39.1694 25.507 39.9619C25.3509 40.8842 25.3197 42.2125 23.9721 43.0055C23.2996 43.4009 22.9547 43.4764 22.6885 43.6022C22.5532 43.6662 22.4001 43.7348 22.4658 43.9736Z" fill="#FEFEFE"/>
<path fill-rule="evenodd" clip-rule="evenodd" d="M37.0309 39.0501C37.0309 39.0501 35.6508 39.5252 34.9883 39.0221C34.3256 38.5191 34.2704 37.4852 34.6569 36.0041C35.0434 34.5229 36.0096 34.2715 36.4235 34.2435C36.8377 34.2154 37.6162 34.4138 37.6162 34.4138L37.0309 39.0501ZM40.8525 31.8346C39.96 31.6086 38.4596 31.1121 36.0475 31.2911C33.822 31.4561 31.309 32.4982 30.8383 36.9458C30.3677 41.3934 32.3761 42.2512 35.263 42.3783C37.3786 42.4714 39.039 41.8822 39.7754 41.5606C40.0318 41.4488 40.2103 41.2089 40.2478 40.9288L41.3144 32.3658C41.3563 32.026 41.1884 31.9196 40.8525 31.8346Z" fill="#FEFEFE"/>
<path fill-rule="evenodd" clip-rule="evenodd" d="M42.911 38.2378L43.6877 30.0381C43.7156 29.7443 43.9591 29.6245 44.2506 29.6245H46.9299C47.1795 29.6245 47.2853 29.8163 47.2164 30.1303L45.581 38.3411C45.5479 38.5 45.4097 38.6136 45.2492 38.6136H43.2483C43.0484 38.6136 42.8918 38.4393 42.911 38.2378Z" fill="#FEFEFE"/>
<path fill-rule="evenodd" clip-rule="evenodd" d="M11.5569 53.3577C12.0875 53.6546 12.7072 53.7409 13.2971 53.5994C15.6468 53.0358 20.8469 51.5185 31.8466 49.9088C45.666 47.8864 55.8694 47.8948 55.8694 47.8948L55.8962 47.8782C55.8962 47.8782 46.8526 46.6203 32.0101 48.0879C17.1674 49.5555 8.88318 51.8619 8.88318 51.8619L11.5569 53.3577Z" fill="#FEFEFE"/>
</svg>
