<svg width="86" height="24" viewBox="0 0 86 24" fill="none" xmlns="http://www.w3.org/2000/svg">
<path fill-rule="evenodd" clip-rule="evenodd" d="M29.1498 0.662295H40.2147L40.2212 4.43738L37.4975 4.43324L43.9549 17.4639L50.3053 4.44566H47.5038V0.673327L56.3574 0.669192L56.3444 2.82027L45.6896 24C43.1184 24.0055 41.4452 23.2121 40.5487 21.5522L31.773 4.44566L29.1482 4.44152L29.1498 0.662295ZM13.9313 0C21.6256 0 27.8625 5.34528 27.8625 11.9379C27.8625 18.5305 21.6256 23.8744 13.9313 23.8744C6.23689 23.8744 0 18.5305 0 11.9379C0 5.34528 6.23689 0 13.9313 0ZM13.8891 3.90617C18.7415 3.90617 22.6746 7.5419 22.6746 12.0262C22.6746 16.5119 18.7415 20.1462 13.8891 20.1462C9.03514 20.1462 5.10203 16.5119 5.10203 12.0262C5.10203 7.5419 9.03514 3.90617 13.8891 3.90617ZM72.0687 0C79.7631 0 86 5.34528 86 11.9379C86 18.5305 79.7631 23.8744 72.0687 23.8744C64.3744 23.8744 58.1375 18.5305 58.1375 11.9379C58.1375 5.34528 64.3744 0 72.0687 0ZM72.0266 3.90617C76.8789 3.90617 80.8121 7.5419 80.8121 12.0262C80.8121 16.5119 76.8789 20.1462 72.0266 20.1462C67.1726 20.1462 63.2395 16.5119 63.2395 12.0262C63.2395 7.5419 67.1726 3.90617 72.0266 3.90617Z" fill="#4C3494"/>
</svg>
