<svg width="94" height="42" viewBox="0 0 94 42" fill="none" xmlns="http://www.w3.org/2000/svg">
<path fill-rule="evenodd" clip-rule="evenodd" d="M5.25091 7.35921H35.0503C37.0302 7.35921 38.6502 8.97918 38.6502 10.9591V31.8087C38.6502 33.7886 37.0302 35.4086 35.0503 35.4086H4.38093C2.40097 35.4086 0.781006 33.7886 0.781006 31.8087V6.04924C0.781006 5.10926 1.55099 4.45928 2.48097 4.34928L29.9604 0.839355C30.9004 0.839355 31.6603 1.60934 31.6603 2.53932V5.45926H3.53095C3.53095 6.67923 3.90094 7.34921 5.25091 7.34921V7.35921ZM21.9605 30.2087C19.4506 30.6887 16.2307 29.8587 14.4807 27.9688C13.6907 27.1188 14.9607 25.8388 15.7607 26.6888C16.9407 27.9588 19.0406 28.5488 20.7506 28.5088C22.9305 28.4588 24.8805 26.4688 23.6405 24.2488C21.9205 21.1789 17.6906 22.0389 15.5107 19.6189C13.7507 17.669 14.5807 14.5991 16.6507 13.2391C18.8106 11.8191 22.5305 11.8791 24.3005 13.9091C25.0605 14.7791 23.7905 16.059 23.0205 15.189C21.5906 13.5491 18.2106 13.7691 16.9207 15.459C15.0807 17.869 17.8306 19.169 19.7506 19.7489C22.3905 20.5489 25.3205 22.0089 25.8005 25.0388C26.1805 27.4788 24.3005 29.7387 21.9605 30.1987V30.2087Z" fill="#EE4E2C"/>
<path fill-rule="evenodd" clip-rule="evenodd" d="M21.9605 30.2085C19.4506 30.6885 16.2306 29.8585 14.4807 27.9686C13.6907 27.1186 14.9607 25.8386 15.7607 26.6886C16.9406 27.9586 19.0406 28.5486 20.7505 28.5086C22.9305 28.4586 24.8805 26.4686 23.6405 24.2487C21.9205 21.1787 17.6906 22.0387 15.5107 19.6188C13.7507 17.6688 14.5807 14.5989 16.6506 13.2389C18.8106 11.8189 22.5305 11.8789 24.3005 13.9089C25.0605 14.7789 23.7905 16.0688 23.0205 15.1889C21.5905 13.5489 18.2106 13.7689 16.9206 15.4589C15.0807 17.8688 17.8306 19.1688 19.7506 19.7488C22.3905 20.5487 25.3205 22.0087 25.8004 25.0387C26.1804 27.4786 24.3005 29.7386 21.9605 30.1985V30.2085Z" fill="#FEFEFE"/>
<path d="M73.2894 6.07918C72.2194 6.07918 71.2694 6.52917 70.6095 7.24916V6.41918C70.6095 5.66919 69.3995 5.66919 69.3995 6.41918V16.259C69.3995 17.0089 70.6095 17.0189 70.6095 16.259V11.8791C71.2694 12.599 72.2294 13.049 73.2894 13.049C75.2694 13.049 76.8793 11.4891 76.8793 9.56911C76.8793 7.64915 75.2694 6.08918 73.2894 6.08918V6.07918ZM73.2894 11.7791C72.0194 11.7791 70.9994 10.7791 70.9994 9.55911C70.9994 8.45913 71.8294 7.53915 72.9194 7.35915C72.9194 7.35915 72.9294 7.35915 72.9394 7.35915C73.0494 7.33916 73.1694 7.32916 73.2894 7.32916C74.2194 7.32916 75.0294 7.87914 75.3894 8.65913V8.66913C75.5094 8.93912 75.5793 9.23911 75.5793 9.55911C75.5793 10.7891 74.5494 11.7791 73.2894 11.7791ZM64.3796 13.039C62.3996 13.039 60.7897 11.4791 60.7897 9.55911C60.7897 7.63915 62.3996 6.07918 64.3796 6.07918C66.3596 6.07918 67.9695 7.63915 67.9695 9.55911C67.9695 11.4791 66.3596 13.039 64.3796 13.039ZM64.3796 7.33916C63.1196 7.33916 62.0896 8.33913 62.0896 9.55911C62.0896 10.7891 63.1196 11.7791 64.3796 11.7791C65.6396 11.7791 66.6695 10.7791 66.6695 9.55911C66.6695 8.32913 65.6396 7.33916 64.3796 7.33916ZM93.219 9.48911C93.189 7.88914 92.349 6.43917 90.599 6.11918C89.0891 5.83919 87.3291 6.60917 86.6891 7.97914C86.0191 9.39911 86.2991 11.3491 87.6191 12.339C89.0391 13.409 91.259 13.079 92.719 12.289C93.399 11.9191 92.789 10.9091 92.109 11.2791C91.189 11.7791 89.979 12.0291 88.9391 11.6891C88.1591 11.4391 87.7291 10.7891 87.5991 10.0591H92.619C92.939 10.0591 93.229 9.7891 93.219 9.46911V9.48911ZM87.6391 8.89912C87.6491 8.85912 87.6591 8.80912 87.6691 8.76912C87.9591 7.81914 88.9491 7.25916 89.949 7.23916C91.099 7.20916 91.739 7.97914 91.939 8.89912H87.6291H87.6391ZM85.1791 9.49911C85.1491 7.89914 84.3092 6.44917 82.5592 6.12918C81.0492 5.84919 79.2893 6.61917 78.6493 7.98914C77.9793 9.40911 78.2593 11.3591 79.5793 12.349C80.9992 13.419 83.2192 13.089 84.6792 12.299C85.3591 11.9291 84.7492 10.9191 84.0692 11.2891C83.1492 11.7891 81.9392 12.0391 80.8992 11.6991C80.1193 11.4491 79.6893 10.7991 79.5593 10.0691H84.5792C84.8991 10.0691 85.1891 9.7991 85.1791 9.47911V9.49911ZM79.5993 8.90912C79.6093 8.86912 79.6193 8.81912 79.6293 8.77912C79.9193 7.82914 80.9092 7.26916 81.9092 7.24916C83.0592 7.21916 83.6992 7.98914 83.8992 8.90912H79.5893H79.5993ZM59.3797 8.36913V12.439C59.3797 13.209 58.1697 13.209 58.1697 12.439V8.44913C58.1297 7.65915 57.4597 7.29916 57.4297 7.28916C56.5698 6.91916 55.0098 7.08916 54.0798 8.26913V12.439C54.0798 13.209 52.8698 13.209 52.8698 12.439V1.98927C52.8698 1.21929 54.0798 1.22929 54.0798 1.98927V6.67917C55.5598 5.68919 57.4397 5.79919 58.3297 6.40918C58.3297 6.40918 59.3897 6.98916 59.3797 8.36913ZM50.8999 2.46926C49.7199 1.16929 47.23 1.12929 45.79 2.03927C44.41 2.90925 43.85 4.87921 45.03 6.12918C46.49 7.67915 49.3099 7.12916 50.4599 9.09912C51.2899 10.5291 49.9899 11.7991 48.5299 11.8291C47.39 11.8491 45.98 11.4691 45.19 10.6591C44.66 10.1091 43.81 10.9291 44.34 11.4791C45.51 12.689 47.66 13.229 49.3299 12.919C50.8899 12.629 52.1499 11.1691 51.8899 9.60911C51.5699 7.66915 49.6099 6.72917 47.85 6.21918C46.57 5.84919 44.73 5.00921 45.96 3.46924C46.82 2.37926 49.0799 2.23927 50.0399 3.29924C50.5499 3.85923 51.3999 3.03925 50.8899 2.47926L50.8999 2.46926Z" fill="#EE4E2C"/>
<path fill-rule="evenodd" clip-rule="evenodd" d="M82.3792 41.4784H78.5493L82.6492 33.7286L75.9094 20.9989H80.0693L84.7292 29.7987L89.3891 20.9989H93.219L82.3792 41.4784ZM44.17 35.4086H47.39V29.5387H51.7199C56.2098 29.5387 59.8597 26.3887 59.8597 22.4988C59.8597 18.6089 56.2198 15.459 51.7199 15.459H44.17C44.17 22.1088 44.17 28.7587 44.17 35.4186V35.4086ZM47.39 26.3187V18.6689H51.7199C54.1598 18.6689 56.1398 20.3789 56.1398 22.4988C56.1398 24.6088 54.1598 26.3287 51.7199 26.3287H47.39V26.3187ZM71.8994 21.1189H74.7194V35.2886H71.8994V33.6986C70.6395 34.7686 69.0095 35.4186 67.2295 35.4186C63.2496 35.4186 60.0197 32.1886 60.0197 28.2087C60.0197 24.2288 63.2496 20.9989 67.2295 20.9989C69.0095 20.9989 70.6395 21.6489 71.8994 22.7188V21.1289V21.1189ZM67.2295 24.0288C69.5295 24.0288 71.3995 25.8988 71.3995 28.1987C71.3995 30.4987 69.5295 32.3686 67.2295 32.3686C64.9296 32.3686 63.0596 30.4987 63.0596 28.1987C63.0596 25.8988 64.9296 24.0288 67.2295 24.0288Z" fill="#EE4E2C"/>
</svg>
